<svg xmlns="http://www.w3.org/2000/svg" viewBox="0 0 56.57 56.57"><defs><style>.cls-1{fill:#1078ad;}.cls-2{fill:none;stroke:#0c6f96;stroke-miterlimit:10;stroke-width:3px;}</style></defs><title>ico3</title><g id="Layer_1" data-name="Layer 1"><g id="Calque_2" data-name="Calque 2"><g id="Layer_1-2" data-name="Layer 1"><path id="Path_911" data-name="Path 911" class="cls-1" d="M22.62,26s-3.06,1.51-4.18-.86a3.1,3.1,0,0,1,1-3.86l7.39-5.06c-.69-.39-1.28-1.21-5.3,1s-6-.31-6-.31L10.85,28.7l3.78,3.92a2.84,2.84,0,0,1,3.12-.57c1.45.5,1.52,2.37,1.52,2.37l2.37-2.08a3.82,3.82,0,0,1,2.43-.11c1.31.39,1.63,2.62,1.63,2.62s2-1,3.27.14.81,3.27.81,3.27c3.52.61,2.41,3.93,2.41,3.93a1.72,1.72,0,0,0,2-.23,2.23,2.23,0,0,0,.26-2.33l-3.72-4.18c-.3-1,.74-1,.74-1l4.82,5.07a2,2,0,0,0,.86.42c2.4-.11,1.81-2.62,1.81-2.62l-4.35-4.7a.81.81,0,0,1,.43-1.05.86.86,0,0,1,.45-.05l5.3,5.6c2.37.6,2.48-1.4,2.48-1.4l-13-13.66Z" transform="translate(-1.12 -0.79)"/><rect id="Rectangle_1113" data-name="Rectangle 1113" class="cls-1" x="14" y="33.11" width="4.49" height="3.52" rx="1.65" ry="1.65" transform="translate(-21.02 20.91) rotate(-45)"/><rect id="Rectangle_1114" data-name="Rectangle 1114" class="cls-1" x="17.8" y="34.45" width="7.52" height="3.51" rx="1.65" ry="1.65" transform="translate(-19.86 23.12) rotate(-42.26)"/><path id="Path_912" data-name="Path 912" class="cls-1" d="M28.59,36h0a1.74,1.74,0,0,0-2.47-.12h0L22.3,39.32a1.76,1.76,0,1,0,2.36,2.62l3.79-3.45A1.74,1.74,0,0,0,28.61,36l0,0Z" transform="translate(-1.12 -0.79)"/><path id="Path_913" data-name="Path 913" class="cls-1" d="M28.65,39.79l-1.9,1.9a1.77,1.77,0,0,0,2.5,2.5h0l1.91-1.89a1.78,1.78,0,0,0-2.42-2.6Z" transform="translate(-1.12 -0.79)"/><rect id="Rectangle_1115" data-name="Rectangle 1115" class="cls-1" x="2.13" y="18.65" width="15.3" height="5.34" rx="0.72" ry="0.72" transform="translate(-14.75 21.88) rotate(-68.65)"/><path id="Path_914" data-name="Path 914" class="cls-1" d="M38.42,17.61c-2-1.21-4.58-3-6.69-2.46s-7.24,3.77-8.33,4.48a39.21,39.21,0,0,0-3.87,2.92,2.43,2.43,0,0,0-.16,2.28,1.8,1.8,0,0,0,2.12.48c.56-.24,8.43-4.19,8.43-4.19s.88-.18,1.25.34,12.3,13,12.3,13,3.85-2.69,5-5.38L42.18,17.44a3.39,3.39,0,0,1-3.76.17Z" transform="translate(-1.12 -0.79)"/><rect id="Rectangle_1116" data-name="Rectangle 1116" class="cls-1" x="45.83" y="13.68" width="5.37" height="15.38" rx="1.15" ry="1.15" transform="translate(-5.48 24.34) rotate(-27.84)"/></g></g></g><g id="Layer_3" data-name="Layer 3"><circle class="cls-2" cx="28.28" cy="28.28" r="26.78"/><path class="cls-2" d="M48.21,10.1,10.59,48Z" transform="translate(-1.12 -0.79)"/></g></svg>